<svg id="Capa_1" data-name="Capa 1" xmlns="http://www.w3.org/2000/svg" viewBox="0 0 52.57 44.22"><defs><style>.cls-1{fill:#fff;}</style></defs><g id="Grupo_735" data-name="Grupo 735"><g id="Grupo_734" data-name="Grupo 734"><path id="Trazado_368" data-name="Trazado 368" class="cls-1" d="M19,14.18l1.7-.19a1.11,1.11,0,0,0,0-.19c.1-.84,0-1.69.1-2.52,0-.43,0-.85,0-1.27a8.69,8.69,0,0,0,0-1.25c0-.42-.11-.84-.15-1.26a5.61,5.61,0,0,1,0-.71.43.43,0,0,1,.09-.22c0-.06.1-.1.14-.15a.74.74,0,0,1,.8-.31,1.14,1.14,0,0,1,.77.4,1.81,1.81,0,0,1,.46,1.19,3.1,3.1,0,0,0,.1.53,2.46,2.46,0,0,1,.76-.6A1.21,1.21,0,0,1,25,7.89a6.84,6.84,0,0,1,.58.75,1.85,1.85,0,0,1,.29,1c0,.2,0,.39,0,.58a1.32,1.32,0,0,0,.09.3c.18-.52.33-1,.49-1.4s.36-1,.56-1.5a2.74,2.74,0,0,1,.41-.7.93.93,0,0,1,.75-.23s.06,0,.08,0c.34-.17.5.11.68.3a2.46,2.46,0,0,1,.59.73,1.24,1.24,0,0,1,.18.62.25.25,0,0,0,0,.12,2.77,2.77,0,0,1,.16,1.14c.05.47.15.94.23,1.42,0,.27.06.54.1.81s.08.49.12.73a.77.77,0,0,1,0,.37,3.5,3.5,0,0,0,0,1.51,2.44,2.44,0,0,1,0,.54.17.17,0,0,1,0,.08c-.32.23-.21.57-.23.88a.27.27,0,0,1-.11.18l-.1-.27-.16,0a1.36,1.36,0,0,1-.24-.6c0-.14,0-.32-.27-.28l-.12.48a.83.83,0,0,1-.27-.57,7.13,7.13,0,0,0-.18-.8c-.08-.49-.16-1-.23-1.47s-.13-.86-.19-1.3l-.06-.32a1.61,1.61,0,0,0-.12-.33,1.25,1.25,0,0,1-.21.7,6.65,6.65,0,0,0-.4,1.24.19.19,0,0,0,0,.08c.21.42,0,.81-.11,1.2a12.17,12.17,0,0,1-.4,1.3c0,.09-.09.17-.11.26s-.25.24-.16.44c0,0-.15.12-.18.2s0,.16,0,.24a.14.14,0,0,1-.08.09c-.36.12-.72.39-1.12.07a1.1,1.1,0,0,0-.32-.17,1,1,0,0,1-.7-.78c-.1-.31-.12-.65-.19-1-.14-.61,0-1.23-.15-1.85a12.26,12.26,0,0,1-.1-1.35.79.79,0,0,0-.06-.22,4.05,4.05,0,0,0-.4,1.17,7.41,7.41,0,0,1-.07.8.37.37,0,0,0,.18.37c0,.15-.26,0-.26.22s-.09.4,0,.52a.91.91,0,0,1,0,.63,5.77,5.77,0,0,1-.21,1,.87.87,0,0,1-.65.72l-.05.39c-.22.14-.22-.06-.29-.17,0,.18-.11.28-.28.21s-.28-.06-.38-.21-.27-.17-.44-.27l-.28-.9-1.28.17c.26.74.49,1.42.74,2.1a10.91,10.91,0,0,1,.6,2,.88.88,0,0,1-.32-.37c-.12-.19-.14-.44-.42-.54-.11-.05-.15-.28-.22-.43l-.14-.27-.2.56a4.11,4.11,0,0,1-.5-1.11c0-.08-.08-.2-.15-.23s-.21-.24-.28-.39c-.16-.33-.3-.67-.45-1a3.41,3.41,0,0,0-1.19.09c-.48.08-1,.16-1.46.22-.26,0-.36.12-.38.38,0,.44-.05.88-.09,1.32,0,.29-.1.57-.14.85s-.08.52-.1.77a12.83,12.83,0,0,1-.34,1.95.45.45,0,0,1-.4.39v-.59l-.43-.11a1.06,1.06,0,0,0,0-.31c0-.08-.12-.14-.2-.23a1.58,1.58,0,0,0,0-.65,3.79,3.79,0,0,1-.05-1c.08-.69.09-1.39.13-2.06a.63.63,0,0,0-.77-.22,2.57,2.57,0,0,1-.73.1.76.76,0,0,1-.55-.12A.56.56,0,0,0,11,17c-.2.08-.34,0-.52,0v-.46l-.41-.25c.05-.29.45-.23.5-.47l2-.41-.35-.14a1.28,1.28,0,0,0-.39-1l-.21.23s-.07,0-.07-.06a1.17,1.17,0,0,0-.2-.66s0-.05,0-.07c.06-.36-.17-.66-.2-1s-.1-.87-.15-1.31-.07-.79-.11-1.23a1.64,1.64,0,0,0-.3.83c-.11.46-.17.94-.31,1.4a1.86,1.86,0,0,0-.15.87,2,2,0,0,1-.23.78l-.39,1c-.11.3-.24.59-.37.88C9.09,16,9,16,9,16l-.23.11.3.16a3.45,3.45,0,0,0-.41.25c-.2.16-.44.22-.62,0s-.31,0-.44-.15a1.26,1.26,0,0,0-.38-.3.46.46,0,0,1-.26-.39c0-.39-.25-.7-.23-1.09,0-.13-.05-.27-.05-.4,0-.85-.06-1.7,0-2.54s0-1.94.08-2.9c.06-.62,0-1.24.07-1.86,0-.29,0-.58.09-.86A.45.45,0,0,1,7,5.89c.12-.14.25-.26.39-.41.09,0,.19.07.26,0,.55-.2.85.14,1.14.51a1.09,1.09,0,0,1,.25.85,2.81,2.81,0,0,0,0,.29C9,7.9,9,8.63,9,9.36a1.13,1.13,0,0,0,0,.41,3.25,3.25,0,0,1,.11-.42c.27-.75.53-1.51.82-2.25a1.68,1.68,0,0,1,.37-.54,1.25,1.25,0,0,1,1.16-.24,8.42,8.42,0,0,1,.71.63,2.44,2.44,0,0,1,.51,1.4l.21,1.21c0,.12,0,.24,0,.37s0,.35.07.52a1.93,1.93,0,0,1,0,.34c-.05.54-.11,1.09-.15,1.64,0,.13,0,.27,0,.4,0,.34,0,.68,0,1,0,.13-.21.05-.17.21s0,.25,0,.37.06.21.07.32,0,.35,0,.55a6.39,6.39,0,0,0,.63-.13.31.31,0,0,0,.25-.33c0-.3,0-.6.07-.9a16.56,16.56,0,0,0,.1-1.86c0-.34.08-.68.14-1A.11.11,0,0,0,14,11a2.33,2.33,0,0,1,0-1.05c0-.36.08-.71.13-1.06a19.71,19.71,0,0,0,.1-2c0-.48.1-1,.15-1.43,0-.29.07-.58.08-.86a7.92,7.92,0,0,1,.29-1.45.69.69,0,0,0,0-.32,3.26,3.26,0,0,1,0-.7,5,5,0,0,1,.07-.65,3.28,3.28,0,0,1,.1-.69,1.23,1.23,0,0,1,.31-.37c.08-.09.11-.29.3-.17l0,0c.22-.3.46-.12.71,0a.31.31,0,0,1,.24.26c0,.33.26.63.07,1a.29.29,0,0,0,0,.24c.18.21,0,.48.14.7a.36.36,0,0,1,0,.25,9.77,9.77,0,0,0,.1,2A6.55,6.55,0,0,0,17,5.67l.33,1.65c.12.6.27,1.2.39,1.8s.31,1.28.45,1.93c.12.5.2,1,.36,1.52a4.36,4.36,0,0,1,.16.8A6.48,6.48,0,0,0,19,14.18Zm-3.2-4h-.07a4,4,0,0,1,0,.6,6,6,0,0,0-.15,1.47,1.94,1.94,0,0,1,0,.24,5.67,5.67,0,0,0-.15,1.23,2.22,2.22,0,0,1-.07.77,1.28,1.28,0,0,0,0,.39c.63-.18,1.24-.21,1.83-.43A1.44,1.44,0,0,0,17,14a4.47,4.47,0,0,1-.51-1.42Z"/><path id="Trazado_369" data-name="Trazado 369" class="cls-1" d="M40.75,26.86l.35.25-.2.07.16.27s0,.09-.07.1c-.22.11-.45.2-.66.32a2.22,2.22,0,0,0-1.28,1.38A2,2,0,0,0,39,30a.79.79,0,0,0,.94.59l.09,0a.78.78,0,0,0,.62-.86c0-.25,0-.51,0-.76s0-.55,0-.82a.33.33,0,0,1,.1-.17,3.07,3.07,0,0,1,.26-.25.12.12,0,0,0,0,.05c.09,0,.24,0,.27.08a1.07,1.07,0,0,1,.14.46,4.89,4.89,0,0,1,0,.66c0,.07,0,.14,0,.21,0,.64,0,1.28-.07,2l-.3-.06-.14-.41-.23.22a1,1,0,0,1-.86.46h-.09a1.21,1.21,0,0,1-.94-.22.53.53,0,0,0-.17-.08c-.16.19.29.27.06.45l-1-1c-.08.28,0,.55-.24.72l0,.07a.45.45,0,0,1,0,.28c0-.06,0-.13-.07-.16s-.15-.26-.17-.45a2.24,2.24,0,0,0-.57-1.42c-.35-.39-.68-.8-1-1.19L35.4,28c0,.51-.06.95-.07,1.4,0,.6,0,1.2,0,1.79s-.08,1.15-.13,1.72a2.74,2.74,0,0,0,0,.64,1.33,1.33,0,0,1,0,.28,2.61,2.61,0,0,0,.92-.11c.48,0,.95-.16,1.43-.2.19,0,.32-.18.53-.12s.35,0,.53,0c.84,0,1.69,0,2.54,0a1.42,1.42,0,0,0,.77-.23A.6.6,0,0,1,42.2,33c1.3,0,2.61,0,3.91,0a2.85,2.85,0,0,1,1.2.13,1.68,1.68,0,0,0,.74,0,2,2,0,0,1,.73.11.69.69,0,0,0,.24.05,5.13,5.13,0,0,1,1.17.21,4.12,4.12,0,0,1,1,.3,7.73,7.73,0,0,1,.95.49,1.24,1.24,0,0,1,.44,1.09c-.07.31-.37.44-.72.3a1.72,1.72,0,0,1-.52-.27A3,3,0,0,0,50,34.94l-1.41-.25h0c-.5,0-1-.07-1.49-.08H43.89c-.6,0-1.21,0-1.81.09a3.52,3.52,0,0,0-.65.1,1.64,1.64,0,0,1-1,0,1.18,1.18,0,0,0-.72,0,7.5,7.5,0,0,1-1.82.28c-.49,0-1,.12-1.47.15a7.29,7.29,0,0,0-1.54.26c-.31.09-.61.24-.92.32-.78.21-1.57.42-2.36.58-.47.09-.93.22-1.4.3-.63.1-1.24.31-1.88.39s-1.35.24-2,.31c-.48,0-.94.2-1.41.24a6.17,6.17,0,0,0-1.14.19.34.34,0,0,1-.37-.14l-.16-.21-1.06.3a4.66,4.66,0,0,1-.64.08.9.9,0,0,1-.66.47l-.88.26s-.11-.05-.13-.1a.59.59,0,0,0-.76-.31c-.28.06-.61,0-.86.29l.33.11.3,0c.07.16,0,.24-.1.31a1.36,1.36,0,0,0-.38.54.62.62,0,0,1-.43.34c-.45.16-.9.3-1.36.45a11.1,11.1,0,0,0-1.3.46c-.35.15-.74.23-1.09.38s-.88.26-1.31.44a4.22,4.22,0,0,1-.69.21c-.2-.3-.2-.42,0-.58s.4-.25.63-.39a.61.61,0,0,0-.3,0c-.33.15-.71.13-1.06.28a7.66,7.66,0,0,1-.95.21,3.29,3.29,0,0,0-.68.26.64.64,0,0,0-.24.32,1,1,0,0,1-.75.59,7.28,7.28,0,0,0-.89.32.59.59,0,0,0-.41.65c.24.09.5-.2.75,0l.08.25a2.1,2.1,0,0,1-1.27.6c-.11-.18-.11-.18.06-.44l-.6.17-.56-.68A2.53,2.53,0,0,0,5.89,43a.31.31,0,0,0-.43-.07h0l-1.26.74a1.56,1.56,0,0,1-.47.17.5.5,0,0,1-.47-.09A3.27,3.27,0,0,1,2,41.81c.18-.15.36-.29.55-.42.36-.22.73-.4,1.09-.6a.66.66,0,0,1,.19-.09,1,1,0,0,0,.68-.31,3,3,0,0,1,.94-.5c1-.4,2-.81,3-1.16A16.33,16.33,0,0,1,10.78,38c.23,0,.28,0,.4.19l.52.94,2.66-.75c.73-.19,1.44-.42,2.18-.58.43-.09.84-.27,1.26-.39.26-.07.53-.12.8-.18,0,0,0,0,.08,0,.86-.31,1.76-.51,2.64-.74.59-.16,1.15-.36,1.73-.52a19.13,19.13,0,0,1,2.37-.48c.58-.08,1.16-.22,1.74-.31.43-.08.87-.12,1.3-.19s1.07-.19,1.61-.28.95-.14,1.42-.21c.27,0,.54-.07.81-.12l1.25-.22c.38-.07.75-.17,1.13-.24a.24.24,0,0,0,.23-.25v0c0-.24,0-.47-.07-.7s-.06-.63-.11-.94,0-.8-.08-1.2a31.72,31.72,0,0,1-.07-3.65,1.25,1.25,0,0,0-.21-.73,1.62,1.62,0,0,1-.34-.68.57.57,0,0,1,0-.18l.24,0,.06-.23c.28-.15.43.21.64.17l.3-.33a1.9,1.9,0,0,1,.1.28.71.71,0,0,1,0,.25,1.42,1.42,0,0,0,.35,1.1,16.87,16.87,0,0,1,1.13,1.67l.08,0a3.46,3.46,0,0,0,0-.91.69.69,0,0,1,0-.28A3.22,3.22,0,0,0,37,26.32a8,8,0,0,1,.19-1.47c0-.05,0-.09.11-.17l.1.36.37-.21a2,2,0,0,1,.12.68,1.18,1.18,0,0,1,0,.2c0,.79,0,1.58-.08,2.36,0,.49,0,1,0,1.47a.66.66,0,0,0,.17.44,5.05,5.05,0,0,1,.36.58c0-.33-.1-.66-.11-1a1.61,1.61,0,0,1,.07-.49,2.81,2.81,0,0,1,1.22-1.64,2.51,2.51,0,0,1,1-.45A1.3,1.3,0,0,0,40.75,26.86ZM14.73,40c.21.17.38,0,.54,0a3.61,3.61,0,0,0,1.3-.37,1.86,1.86,0,0,1,1-.31c-.27-.1-.59,0-.76-.19-.4.11-.76.19-1.11.3A1.77,1.77,0,0,0,14.73,40Z"/><path id="Trazado_370" data-name="Trazado 370" class="cls-1" d="M6.87,22.36l-.4-1.1c-.09,0-.2,0-.26,0A.46.46,0,0,1,6,21c-.07-.15-.07-.34-.29-.37l.09-.38-.37.07.26.68-.12.33c-.34-.11-.09-.49-.33-.63l-.13.14a1.92,1.92,0,0,1-.22-.51,2.86,2.86,0,0,0-.34-1,1.16,1.16,0,0,0-.17.39.88.88,0,0,1-.19.49c-.11.2-.24.38-.34.58s0,.15,0,.23a.62.62,0,0,1-.74.18c-.11,0-.25-.16-.39,0s-.1,0-.14-.05a1.26,1.26,0,0,1-.28-.19,9.79,9.79,0,0,1-1.14-1.18A2.79,2.79,0,0,1,.87,19C.74,18.67.65,18.31.54,18a2.33,2.33,0,0,1-.05-.28c0-.14-.06-.29-.1-.43s-.06-.18,0-.68a2.33,2.33,0,0,0-.08-.36.81.81,0,0,1,0-.31.27.27,0,0,0-.05-.26,1,1,0,0,1-.15-.38c0-.8-.09-1.59-.08-2.39,0-.57.09-1.14.14-1.71s.07-.9.1-1.35c.06-.68.09-1.35.18-2s.2-1.07.29-1.61c.05-.29.08-.57.11-.86,0-.09,0-.19.05-.28.1-.54.2-1.08.28-1.62a1,1,0,0,1,.91-.8,1.31,1.31,0,0,1,1.16.78.3.3,0,0,1,0,.16,5.1,5.1,0,0,1-.12,1.56c-.2.73-.38,1.46-.55,2.19-.1.43-.16.86-.24,1.29a.56.56,0,0,1,0,.13A13,13,0,0,0,2,10.37c-.1.45-.16.91-.24,1.37a17.06,17.06,0,0,0-.08,2.86,7.7,7.7,0,0,0,.14,1.06,1,1,0,0,1,0,.24.75.75,0,0,0,.14.76s0,.08,0,.12a4.36,4.36,0,0,0,.41,1.46c0,.11.09.23.15.37a.73.73,0,0,0,.27-.45c.16-.53.32-1.07.45-1.62.1-.38.15-.78.22-1.17.14-.73.3-1.45.4-2.18a1.69,1.69,0,0,0,0-1,.42.42,0,0,1,0-.25,1.05,1.05,0,0,0,0-.76.7.7,0,0,1-.06-.32c0-.76,0-1.53,0-2.29A11.09,11.09,0,0,1,4,6.69c0-.17,0-.33,0-.52a10,10,0,0,0,.1-1.23c.05-.56.1-1.13.18-1.68a.85.85,0,0,1,.51-.57.78.78,0,0,1,1,.22l.18.18a.87.87,0,0,1,.3.66c0,.59,0,1.19-.1,1.78A11.48,11.48,0,0,1,6,7.08c-.1.51,0,1-.08,1.53a13.73,13.73,0,0,0-.07,1.7,2.73,2.73,0,0,0,0,.4c0,.06,0,.12,0,.16a4.84,4.84,0,0,0-.06,1.2,2.46,2.46,0,0,1-.08.9c.1.19,0,.38,0,.56a14.24,14.24,0,0,0,0,1.6,8.66,8.66,0,0,0,.3,2,.88.88,0,0,1,0,.16,6.64,6.64,0,0,0,.25,1.77c.12.52.22,1,.33,1.56s.21.94.3,1.4a2.46,2.46,0,0,1,0,.28Z"/><path id="Trazado_371" data-name="Trazado 371" class="cls-1" d="M15,28a1.82,1.82,0,0,0,.31-1,1.49,1.49,0,0,1,.05-.36.44.44,0,0,0,0-.16,12,12,0,0,1-.08-2.07c0-.28,0-.56,0-.83s-.05-.3-.06-.45a1.42,1.42,0,0,1,0-.41,9.62,9.62,0,0,0,.09-1.52,1.55,1.55,0,0,0,.06-.31,1.67,1.67,0,0,0-.08-.32c.24.07.35.14.33.33a13,13,0,0,0,.18,1.51,1.55,1.55,0,0,0,.08.36,8.93,8.93,0,0,1,.09,1c.05.49.13,1,.15,1.47a9.58,9.58,0,0,1-.09,2.27,3.13,3.13,0,0,1-.5.89s0,0,0,0c-.45.09-.71.58-1.2.57L14,29a1.31,1.31,0,0,0-.28,0,.72.72,0,0,1-.68-.19,1.92,1.92,0,0,1-.66-1.2c-.06-.34,0-.68-.08-1-.09-.62,0-1.25-.1-1.86-.05-.44,0-.88-.06-1.32,0-.11-.05-.21-.06-.32a1.54,1.54,0,0,1,0-.37c0-.14.09-.25,0-.4s0-.18.06-.27.17-.13.28-.12l.15-.42c.08.1.14.15.14.2.07.53.17,1.06.2,1.6s0,1.05.09,1.56,0,1,.07,1.45.08.95.16,1.43a.73.73,0,0,0,.81.6,3.64,3.64,0,0,0,.72-.26s0-.08.05-.11S14.9,28,15,28Z"/><path id="Trazado_372" data-name="Trazado 372" class="cls-1" d="M44.26,15.58l.12.3.24-.35c.21.06.2.2.2.35v1.24c0,.44,0,.86,0,1.3,0,.2-.05.4-.06.61a2.58,2.58,0,0,0,0,.62,1.67,1.67,0,0,1,0,.77c0,.25.07.52,0,.77,0,.45-.07.44.16.8l-.18.07.22.2c0,.06-.08.13-.13.15a.32.32,0,0,0-.22.36c0,.14-.09.19-.22.23l0-.36a4.93,4.93,0,0,0-.66.07,2.25,2.25,0,0,1-1.58-.32.85.85,0,0,1-.26-.24,2,2,0,0,1-.46-1.34,2.51,2.51,0,0,1,.46-1.39,1.87,1.87,0,0,1,1-.83.76.76,0,0,0,.24-.18l.82.06c0-.46,0-.93,0-1.4s.05-.77.09-1.15A1,1,0,0,1,44.26,15.58Zm-.08,6.29v-.32c0-.06,0-.15,0-.18s-.11-.34-.12-.51c0-.48-.05-1-.08-1.44a.31.31,0,0,0-.29-.3,1.3,1.3,0,0,0-.93.36,1.8,1.8,0,0,0-.47.84A1.16,1.16,0,0,0,43,21.78h0a4.74,4.74,0,0,0,1.13.07Z"/><path id="Trazado_373" data-name="Trazado 373" class="cls-1" d="M20.8,34.38l-.15.17.33.1c0,.22-.21.27-.37.33-.1.3-.06.64-.27.92v-.76a1,1,0,0,0-.34,0,2.6,2.6,0,0,1-1.27,0,1.63,1.63,0,0,1-.89-.48,2,2,0,0,1-.34-.73A2.37,2.37,0,0,1,18,31.73,2.07,2.07,0,0,1,19,31a1.71,1.71,0,0,1,.87-.05.69.69,0,0,0,.08-.51c-.05-.16,0-.35.05-.52s0-.58,0-.88a4.43,4.43,0,0,1,.23-1.08l.15.31a.43.43,0,0,1,.39-.24,8.08,8.08,0,0,1,.05,2.14c-.06.64,0,1.27-.06,1.9,0,.38,0,.77,0,1.15s-.06.49-.07.73S20.66,34.18,20.8,34.38Zm-1.1-2.8-.37,0c-.24.05-.5.09-.6.37a.58.58,0,0,1-.1.12,1.37,1.37,0,0,0-.36,1.3,1,1,0,0,0,.66.83,1.42,1.42,0,0,0,1.21,0c0-.18,0-.35-.05-.52,0-.49-.09-1-.09-1.48,0-.28-.05-.5-.3-.63Z"/><path id="Trazado_374" data-name="Trazado 374" class="cls-1" d="M37.51,23.12c.08,0,.2,0,.21.07s-.15.14-.23.26l.31.17c0,.05,0,.1-.06.11a.49.49,0,0,0-.34.51.52.52,0,0,1-.16.32V24a2.67,2.67,0,0,1-1.25.15,1.94,1.94,0,0,1-1.17-.46,1.37,1.37,0,0,1-.45-.86,2.48,2.48,0,0,1,0-1.27,2.37,2.37,0,0,1,1.42-1.6,4.64,4.64,0,0,1,.91-.13.66.66,0,0,0,0-.46c0-.15.05-.32.05-.48s0-.58,0-.87a5.83,5.83,0,0,1,.1-.73,1.9,1.9,0,0,1,.23-.39l.11.22.23-.13.07.07a9.41,9.41,0,0,1,0,2.43,5.79,5.79,0,0,0,0,1.81.5.5,0,0,1,0,.21,4.06,4.06,0,0,0-.08,1.15C37.56,22.79,37.53,23,37.51,23.12Zm-1-2.63a1.86,1.86,0,0,0-.33,0,1.45,1.45,0,0,0-.56.23,1.68,1.68,0,0,0-.48,1.8,1,1,0,0,0,.67.63,2.83,2.83,0,0,0,.77.07c.34,0,.38,0,.36-.38a6.42,6.42,0,0,1-.11-1.16c0-.22,0-.46,0-.69A.56.56,0,0,0,36.55,20.49Z"/><path id="Trazado_375" data-name="Trazado 375" class="cls-1" d="M9.47,30.32a.56.56,0,0,1-.12,0,5.36,5.36,0,0,0-1.73.28,5.21,5.21,0,0,1-2.77-.06l-.2,0-.15,0-.09,1.1a.72.72,0,0,1-.17.45v-.5a4.78,4.78,0,0,0-.08-1.07.46.46,0,0,0-.25-.34,1.21,1.21,0,0,1-.5-.45c.1-.12.32-.2.18-.42l.15-.09a.59.59,0,0,1,.23,0c0-.42,0-.81-.07-1.19a18,18,0,0,1-.07-2.65A5.58,5.58,0,0,1,4,23.86a1.21,1.21,0,0,0,0-.38.38.38,0,0,1,.21-.34l.12.24c.11-.12.13-.36.38-.24a11.08,11.08,0,0,1,0,2.23c-.12,1.29,0,2.57-.07,3.86,0,.09,0,.18,0,.27a5.18,5.18,0,0,0,1.5.44l1,.08a1.84,1.84,0,0,0,.33,0s.06,0,.07,0c.2.19.44.05.65.07s.44.06.65.1l.62.12Z"/><path id="Trazado_376" data-name="Trazado 376" class="cls-1" d="M9.2,25.92A1.94,1.94,0,0,1,9.38,27a5,5,0,0,0,0,1.28s0,.1,0,.11a1.55,1.55,0,0,0-.21.76c0,.05-.09.14-.12.13a.34.34,0,0,1-.18-.13,1.39,1.39,0,0,1-.12-.28l-.28.32a1.19,1.19,0,0,1-.81.36A1.38,1.38,0,0,1,6.38,29a1.13,1.13,0,0,1-.21-.35,2.19,2.19,0,0,1,0-1.72,3.06,3.06,0,0,1,2-1.78l.12-.05c.28-.11.28-.11.62,0,.1.27-.16.17-.28.26.19,0,.28.12.2.33a5,5,0,0,0-.92.4,2.67,2.67,0,0,0-1,1.18A1.31,1.31,0,0,0,7,28.43a.57.57,0,0,0,.53.34,1.07,1.07,0,0,0,.8-.28.66.66,0,0,0,.22-.71,3.9,3.9,0,0,1,0-1.56.18.18,0,0,1,.1-.11A2,2,0,0,0,9.2,25.92Z"/><path id="Trazado_377" data-name="Trazado 377" class="cls-1" d="M40.89,19.05l0,.24-.21.06s0,.07,0,.08.19,0,.17.13-.07.1-.12.13l-.9.49a2,2,0,0,0-1,1.21A1.1,1.1,0,0,0,39,22.53a.7.7,0,0,0,.79.2c.32-.13.63-.31.66-.71,0-.21,0-.41-.06-.62s0-.38,0-.57.07-.14.06-.21a.76.76,0,0,1,.3-.71l.43.07a2.48,2.48,0,0,1,0,1.21,1.62,1.62,0,0,0,0,.58c0,.21.1.44,0,.61a1.52,1.52,0,0,0-.12.59c0,.15-.1.23-.28.21l-.17-.39a1.2,1.2,0,0,1-.83.66,1.79,1.79,0,0,1-1.1-.08,1.26,1.26,0,0,1-.65-.73,2.28,2.28,0,0,1,0-1.72,3.26,3.26,0,0,1,1.64-1.63A1.82,1.82,0,0,1,40.89,19.05Z"/><path id="Trazado_378" data-name="Trazado 378" class="cls-1" d="M31.31,28.85l-.15.19.17.24a.75.75,0,0,1-.11.13l-.81.4a2.45,2.45,0,0,0-1.08,1.1,1.52,1.52,0,0,0,0,1.09.76.76,0,0,0,1,.45.83.83,0,0,0,.65-1,.57.57,0,0,0,0-.14,3,3,0,0,1,.06-1.4.24.24,0,0,1,.28-.22h.06a.94.94,0,0,0,.37,0c0,.13,0,.22,0,.31,0,.63,0,1.25,0,1.87a5.33,5.33,0,0,1-.17,1c0,.07-.08.13-.17.24l-.18-.59a2.46,2.46,0,0,1-.34.44,1,1,0,0,1-.72.27,2.38,2.38,0,0,1-.88-.13,1.43,1.43,0,0,1-.78-1.22,4.68,4.68,0,0,1,0-.66.09.09,0,0,1,0-.07,4,4,0,0,1,.76-1.36,3.3,3.3,0,0,1,1.58-.92,5,5,0,0,1,.56-.07Z"/><path id="Trazado_379" data-name="Trazado 379" class="cls-1" d="M45.89,28.36a.76.76,0,0,0,.14-.8.5.5,0,0,1,0-.32.67.67,0,0,0,0-.28,1.3,1.3,0,0,1,1-1.27,1.83,1.83,0,0,1,.84,0,1,1,0,0,1,.79.71,3.51,3.51,0,0,1,.12,1.76,2.09,2.09,0,0,1-.4,1,1.52,1.52,0,0,1-.93.57c-.2,0-.42.16-.63,0-.54,0-.71-.4-.88-.8a.28.28,0,0,1,0-.2C46.1,28.55,46,28.48,45.89,28.36Zm2.13-.8h0c0-.13,0-.25,0-.38a.84.84,0,0,0-.22-.6.51.51,0,0,0-.71-.12l-.08.07c-.28.38-.61.87-.26,1.4a.37.37,0,0,1,0,.15.84.84,0,0,0,.17.55.4.4,0,0,0,.51.23l.08-.05a.57.57,0,0,0,.4-.48c0-.26.08-.52.12-.78Z"/><path id="Trazado_380" data-name="Trazado 380" class="cls-1" d="M25.25,24.23a.84.84,0,0,0,.49.81,1.25,1.25,0,0,0,1.45-.22l.33-.21c0,.06,0,.09,0,.1a3,3,0,0,1-1.07.9,1.53,1.53,0,0,1-1.72-.34,2.15,2.15,0,0,1-.28-.64c0-.12-.12-.23-.18-.35a3.57,3.57,0,0,0,.16-.72,2.14,2.14,0,0,1,2-1.87H27c.22,0,.59.24.61.42a.84.84,0,0,1-.15.78,3.71,3.71,0,0,1-.56.49c-.42.28-.84.55-1.28.8A.86.86,0,0,1,25.25,24.23Zm1.31-1.66a1.1,1.1,0,0,0-1.21.94,6.44,6.44,0,0,0,1.21-.94Z"/><path id="Trazado_381" data-name="Trazado 381" class="cls-1" d="M24.16,33.36a2.49,2.49,0,0,1-1,.82,1.24,1.24,0,0,1-1,.1,1.19,1.19,0,0,1-.87-.8A2.36,2.36,0,0,1,21.63,31a2,2,0,0,1,1.47-.8,2.43,2.43,0,0,1,.8.12.59.59,0,0,1,.34.76h0a2,2,0,0,1-.37.58,5,5,0,0,1-1.16.77l-.8.4a.69.69,0,0,0,.37.68,1,1,0,0,0,1.21.06,3.36,3.36,0,0,1,.6-.3ZM22,32.1A8.25,8.25,0,0,0,23.32,31a1.28,1.28,0,0,0-1,.39C22.18,31.59,21.93,31.75,22,32.1Z"/><path id="Trazado_382" data-name="Trazado 382" class="cls-1" d="M19,27c-.07.07-.34,0-.08.38-.27-.16-.42-.22-.58-.18a1.36,1.36,0,0,1-.08-.82,3.78,3.78,0,0,0-.09-1.64.74.74,0,0,0-.5-.5.45.45,0,0,0-.37.4c0,.23-.06.47-.09.7s-.05.32-.06.48,0,.45,0,.67c0,.05.06.12,0,.15-.25.39-.15.88-.39,1.31,0-.06-.09-.11-.09-.15a2.08,2.08,0,0,0-.22-1,.27.27,0,0,1,0-.12c0-.59-.07-1.18-.08-1.78a4.89,4.89,0,0,1,.08-.85,1,1,0,0,1,.16-.34c.05-.07.12-.18.23-.1s.18-.07.28-.1l.14.13a1.55,1.55,0,0,0,.36-.08.79.79,0,0,1,.9.23,1.64,1.64,0,0,1,.6,1.27,2.76,2.76,0,0,0,.06.4,1,1,0,0,1,0,.24c0,.15-.05.3-.06.45a1.19,1.19,0,0,1-.1.56A.93.93,0,0,0,19,27Z"/><path id="Trazado_383" data-name="Trazado 383" class="cls-1" d="M51.5,28.85l0,.21-.28-.23-.15.27a1,1,0,0,1-.18-1,4,4,0,0,0,0-1.64,1,1,0,0,0-.31-.43c-.18-.19-.34-.18-.46.06a1.88,1.88,0,0,0-.2.62,4.56,4.56,0,0,1-.08.82c0,.09.05.22,0,.32a12.68,12.68,0,0,1-.34,1.84s0,0-.08,0,0-.2,0-.3a4.09,4.09,0,0,0-.1-.61,7,7,0,0,1-.23-2.36,3.25,3.25,0,0,1,.08-.69,4.56,4.56,0,0,1,.18-.52,3.85,3.85,0,0,0,1.12-.08.76.76,0,0,1,.72.21,1.93,1.93,0,0,1,.64,1.43,3.66,3.66,0,0,1-.07,1.32c.11.21-.18.38-.05.59Z"/><path id="Trazado_384" data-name="Trazado 384" class="cls-1" d="M20.5,23l.3,0,0-.32c.13-.08.19,0,.25.07.2.42.44.82.62,1.25s.37,1,.57,1.54c.07-.07.15-.12.17-.18a9.54,9.54,0,0,0,.7-1.84.28.28,0,0,1,0-.12,2.06,2.06,0,0,0,.4-.89l.52-1.3a.25.25,0,0,1,.16.31c-.2.56-.22,1.17-.38,1.74-.05.17-.06.35-.1.52-.13.47-.33.92-.5,1.38a10,10,0,0,1-.45,1,.65.65,0,0,1-.63.38.5.5,0,0,1-.48-.27c-.17-.33-.36-.65-.5-1-.24-.59-.44-1.19-.66-1.78A.66.66,0,0,1,20.5,23Z"/><path id="Trazado_385" data-name="Trazado 385" class="cls-1" d="M32.78,21.23v.37l-.43-.13a.6.6,0,0,0-.57.14.31.31,0,0,0-.08.42.34.34,0,0,0,.09.08.64.64,0,0,0,.25.15,2.5,2.5,0,0,1,.8.5,1.21,1.21,0,0,1,0,1.72,1.16,1.16,0,0,1-.24.2,1.86,1.86,0,0,1-.6.25,1.11,1.11,0,0,1-.48-.05c-.13,0-.25-.13-.38-.17a.31.31,0,0,1-.25-.23,1,1,0,0,0-.24-.31c.08,0,.16-.05.21,0a.67.67,0,0,1,.22.19.83.83,0,0,0,1,.08c.31-.2.32-.19.5-.76a1.79,1.79,0,0,0-1.08-.7c-.47-.18-.59-.43-.66-.93a1.41,1.41,0,0,1,1.37-1.43l.23,0a.81.81,0,0,1,.65.49C33.05,21.32,32.88,21.2,32.78,21.23Z"/><path id="Trazado_386" data-name="Trazado 386" class="cls-1" d="M44.65,29.44c0,.24-.21.35-.36.48a1.7,1.7,0,0,1-1.74.4c-.19,0-.36-.24-.52-.39a1.34,1.34,0,0,1-.38-1,2.68,2.68,0,0,1,.09-1,2.13,2.13,0,0,1,2.1-1.55,1,1,0,0,1,.81.39.6.6,0,0,1-.72.45h0a1.33,1.33,0,0,0-1.27.64,1.53,1.53,0,0,0,0,1.66.37.37,0,0,0,.15.13,3,3,0,0,0,.4.2.62.62,0,0,0,.55,0l.9-.4Z"/><path id="Trazado_387" data-name="Trazado 387" class="cls-1" d="M28.06,21.41a2.86,2.86,0,0,1,.47-.1.29.29,0,0,1,.22,0,.35.35,0,0,0,.34,0,1.51,1.51,0,0,1,1.16.13.76.76,0,0,1,.41.68c0,.14-.06.24-.23.21a.2.2,0,0,0-.12.06.27.27,0,0,1-.34,0l-.25-.16c-.35-.22-.67-.16-.9.37a1.62,1.62,0,0,0-.07.44,8.28,8.28,0,0,1-.16,1.49.22.22,0,0,0,0,.08,1,1,0,0,1-.29.93c-.09-.38-.2-.79-.27-1.2a6.5,6.5,0,0,1-.05-2.2C28,22,28,21.68,28.06,21.41Z"/><path id="Trazado_388" data-name="Trazado 388" class="cls-1" d="M27.66,33.81v-.5a1.21,1.21,0,0,0-.13-.67,1.53,1.53,0,0,1-.12-.6l-.09-.52c0-.15-.1-.29,0-.44a.23.23,0,0,0,0-.2,3.32,3.32,0,0,1-.08-.94,5.54,5.54,0,0,0-.07-.57,1,1,0,0,1,0-.25c0-.26.06-.53.07-.79s0-.53,0-.79a6.59,6.59,0,0,1,.2-.88s.1-.07.17-.11l.09.21.19-.22a.2.2,0,0,1,.18.22h0c0,.3,0,.6,0,.9,0,.8-.06,1.6-.08,2.4,0,.3,0,.6,0,.9,0,.56,0,1.13-.08,1.69,0,.24-.09.47-.13.71l-.06.44Z"/><path id="Trazado_389" data-name="Trazado 389" class="cls-1" d="M44.65,29.44a2.11,2.11,0,0,1,0-.35c.17-.56.17-.59.1-.91a1,1,0,0,1,0-.24,12.84,12.84,0,0,1,.17-1.64A1.43,1.43,0,0,1,45,26l.2.16.24-.15s.09,0,.1.06a.68.68,0,0,1,.07.27,3.72,3.72,0,0,1-.07,1.2,1,1,0,0,0,0,.29c0,.41,0,.82,0,1.23a3.08,3.08,0,0,1-.08.53c0,.17-.08.35-.12.55l-.23,0-.25-.89-.23.14Z"/><path id="Trazado_390" data-name="Trazado 390" class="cls-1" d="M19.82,27.16c-.11-.14-.21-.21-.23-.31a1.57,1.57,0,0,0-.13-.42c-.07-.11,0-.28-.13-.4s0-.11,0-.16a6,6,0,0,0-.06-1.2,1.57,1.57,0,0,1,.06-.53l.06-1.06.48-.12c.18,0,.29,0,.29.19,0,.41,0,.82,0,1.23,0,.1,0,.2,0,.29q0,.91-.09,1.83A4.55,4.55,0,0,1,19.82,27.16Z"/><path id="Trazado_391" data-name="Trazado 391" class="cls-1" d="M34.14,20.28a.86.86,0,0,1,.14.76.75.75,0,0,0,0,.16c0,.54-.07,1.07-.08,1.61a7.14,7.14,0,0,1-.18,1.3,1.39,1.39,0,0,0-.09.57s0,.09-.07.15l-.07,0a3.35,3.35,0,0,0-.19-1.13,7.65,7.65,0,0,1-.15-2.29c0-.22.05-.43.07-.65s.11-.36.42-.37Z"/><path id="Trazado_392" data-name="Trazado 392" class="cls-1" d="M10.9,42.34,9.29,43a4.54,4.54,0,0,0-.45.21c-.3.17-.3.18-.49-.15a.39.39,0,0,1,.3-.23A.47.47,0,0,0,9,42.69c.08-.16.23-.18.34-.27a3.11,3.11,0,0,1,.38-.25A1.27,1.27,0,0,1,10.88,42Z"/><path id="Trazado_393" data-name="Trazado 393" class="cls-1" d="M45,24.88a1.32,1.32,0,0,1,0-.28c.06-.26.17-.33.45-.3a1.21,1.21,0,0,1,.19,0,.22.22,0,0,1,.21.24h0c-.06.32-.11.65-.2,1s-.21.26-.4.1A.76.76,0,0,1,45,24.88Z"/><path id="Trazado_394" data-name="Trazado 394" class="cls-1" d="M20,21.24a.41.41,0,0,1,.19,0c.12,0,.2.08.16.23s-.15.58-.22.87c0,.12-.07.21-.2.23a.29.29,0,0,1-.3-.15,1,1,0,0,1-.06-1.05c0-.06.14-.11.23-.13S20,21.22,20,21.24Z"/><path id="Trazado_395" data-name="Trazado 395" class="cls-1" d="M34,20c-.14-.19-.29-.31-.33-.47a2,2,0,0,1,0-.85.2.2,0,0,1,.14-.14,2.44,2.44,0,0,1,.54,0,.23.23,0,0,1,.13.17,5.34,5.34,0,0,1-.2.88A1.8,1.8,0,0,1,34,20Z"/><path id="Trazado_396" data-name="Trazado 396" class="cls-1" d="M47,24.18c.28-.29.55-.58.84-.84a.32.32,0,0,1,.3,0,.21.21,0,0,1,.05.29l0,0a2.64,2.64,0,0,1-.77.68.26.26,0,0,1-.36-.08Z"/><path id="Trazado_397" data-name="Trazado 397" class="cls-1" d="M19.83,39.05,20,38.7c.17,0,.35-.07.43.13a.35.35,0,0,1-.05.3C20.16,39.28,20,39.16,19.83,39.05Z"/></g></g></svg>